<svg width="16" height="16" viewBox="0 0 16 16" fill="none" xmlns="http://www.w3.org/2000/svg">
<path d="M15.5865 14.107L11.7 10.2215C12.6376 8.91266 13.0487 7.29902 12.8514 5.70111C12.6542 4.10319 11.8631 2.63793 10.6354 1.59638C9.40759 0.554836 7.83296 0.0132145 6.22427 0.0791081C4.61558 0.145002 3.09053 0.813589 1.95206 1.95206C0.813589 3.09053 0.145002 4.61558 0.0791081 6.22427C0.0132145 7.83296 0.554836 9.40759 1.59638 10.6354C2.63793 11.8631 4.10319 12.6542 5.70111 12.8514C7.29902 13.0487 8.91266 12.6376 10.2215 11.7L14.1075 15.586C14.3088 15.7542 14.5656 15.8409 14.8276 15.8292C15.0896 15.8175 15.3378 15.7081 15.5232 15.5227C15.7086 15.3373 15.818 15.0891 15.8297 14.8271C15.8414 14.5651 15.7547 14.3083 15.5865 14.107ZM2 6.5C2 5.60998 2.26392 4.73995 2.75838 3.99993C3.25285 3.25991 3.95566 2.68313 4.77792 2.34254C5.60019 2.00195 6.50499 1.91283 7.3779 2.08646C8.25082 2.2601 9.05264 2.68868 9.68198 3.31802C10.3113 3.94735 10.7399 4.74918 10.9135 5.62209C11.0872 6.49501 10.9981 7.39981 10.6575 8.22207C10.3169 9.04434 9.74009 9.74715 9.00006 10.2416C8.26004 10.7361 7.39001 11 6.5 11C5.30652 11 4.16193 10.5259 3.31802 9.68198C2.4741 8.83806 2 7.69347 2 6.5V6.5Z" fill="#BDBDBD"/>
</svg>
