<svg width="26" height="42" viewBox="0 0 26 42" fill="none" xmlns="http://www.w3.org/2000/svg">
<path d="M1.26335e-06 20.8025C-0.000149266 21.3479 0.107437 21.888 0.316585 22.3917C0.525733 22.8955 0.832323 23.3529 1.21875 23.7379L17.85 40.3629C18.2179 40.7995 18.6715 41.1559 19.1828 41.4099C19.6942 41.664 20.2522 41.8102 20.8224 41.8395C21.3926 41.8689 21.9628 41.7807 22.4975 41.5806C23.0322 41.3804 23.52 41.0724 23.9308 40.6759C24.3415 40.2793 24.6664 39.8025 24.8852 39.2752C25.104 38.7478 25.2121 38.1811 25.2027 37.6103C25.1934 37.0394 25.0668 36.4765 24.8309 35.9566C24.595 35.4367 24.2547 34.9708 23.8312 34.5879L23.7292 34.4858L10.0396 20.8025L23.7313 7.11496C24.4393 6.33127 24.8233 5.30795 24.8056 4.25194C24.7879 3.19593 24.3699 2.18604 23.636 1.42649C22.9021 0.666951 21.9072 0.214442 20.8524 0.160476C19.7976 0.10651 18.7617 0.455116 17.9542 1.13579L17.8521 1.23788L1.22084 17.8629C0.833534 18.2481 0.526273 18.7062 0.316748 19.2107C0.107224 19.7152 -0.000425402 20.2562 1.26335e-06 20.8025Z" fill="white"/>
</svg>
